<?xml version="1.0" standalone="no"?>
<!DOCTYPE svg PUBLIC "-//W3C//DTD SVG 20010904//EN"
 "http://www.w3.org/TR/2001/REC-SVG-20010904/DTD/svg10.dtd">
<svg version="1.0" xmlns="http://www.w3.org/2000/svg"
 width="512.000000pt" height="512.000000pt" viewBox="0 0 512.000000 512.000000"
 preserveAspectRatio="xMidYMid meet">
<metadata>
Created by potrace 1.14, written by Peter Selinger 2001-2017
</metadata>
<g transform="translate(0.000000,512.000000) scale(0.100000,-0.100000)"
fill="#000000" stroke="none">
<path d="M2485 4916 c-42 -13 -46 -14 -67 -20 -7 -2 -30 -9 -50 -15 -20 -7
-45 -14 -55 -16 -10 -2 -79 -23 -153 -45 -74 -23 -143 -43 -152 -45 -9 -2 -26
-9 -37 -15 -12 -6 -21 -9 -21 -6 0 3 -25 -4 -57 -15 -31 -10 -59 -17 -61 -14
-3 3 -10 1 -16 -4 -11 -9 -73 -30 -104 -36 -9 -2 -18 -4 -19 -5 -2 -2 -6 -3
-10 -4 -5 -1 -14 -5 -20 -9 -7 -5 -13 -6 -13 -4 0 3 -19 -1 -42 -8 -155 -48
-285 -88 -299 -90 -9 -2 -39 -11 -65 -21 -27 -9 -56 -18 -64 -19 -8 -1 -22 -5
-30 -8 -18 -7 -378 -116 -401 -122 -112 -25 -163 -58 -179 -113 -13 -44 -9
-2241 4 -2282 4 -14 10 -36 13 -50 2 -14 7 -32 9 -40 3 -8 6 -17 6 -20 2 -22
61 -162 98 -235 57 -109 150 -249 217 -325 100 -114 197 -213 313 -320 57 -52
256 -207 363 -282 45 -32 87 -62 94 -67 6 -6 35 -25 65 -43 29 -17 55 -35 58
-39 3 -3 21 -14 40 -24 19 -10 49 -29 66 -41 17 -13 33 -24 36 -24 3 0 45 -23
94 -52 131 -76 235 -131 364 -194 146 -71 158 -71 335 17 164 82 379 200 383
211 2 4 8 8 13 8 12 0 333 201 349 219 3 3 28 22 55 40 28 19 52 38 55 41 3 3
21 17 40 30 32 22 171 131 196 155 6 5 42 37 79 70 157 137 318 321 419 475
66 101 126 213 126 235 0 7 4 15 8 17 9 3 49 120 64 183 5 22 12 51 15 65 4
14 8 527 10 1140 3 1077 3 1116 -15 1150 -22 40 -61 66 -129 85 -27 7 -75 21
-108 30 -33 10 -67 20 -75 23 -8 3 -17 6 -20 7 -3 0 -39 11 -80 24 -41 13 -79
24 -85 25 -5 2 -30 9 -55 16 -25 7 -49 15 -55 16 -5 2 -93 28 -195 59 -102 32
-205 63 -230 70 -25 7 -66 20 -92 28 -27 8 -48 13 -48 11 0 -2 -20 5 -45 16
-25 11 -47 19 -50 20 -10 0 -60 12 -75 17 -8 4 -18 7 -22 8 -5 2 -9 3 -10 4
-2 2 -14 4 -28 7 -14 2 -36 8 -50 13 -14 5 -59 19 -100 31 -41 12 -103 31
-138 42 -34 11 -68 21 -75 22 -7 1 -17 5 -23 8 -6 4 -21 9 -35 12 -13 2 -46
12 -74 20 -59 19 -105 19 -160 2z"/>
</g>
</svg>
